<svg viewBox="0 0 640 400" data-background-color="transparent" preserveAspectRatio="xMidYMid meet" height="400" width="640" xmlns="http://www.w3.org/2000/svg" xmlns:xlink="http://www.w3.org/1999/xlink"><rect width="640" height="400" x="0" y="0" opacity="1" fill="transparent" data-fill-palette-color="background" id="background"></rect><g id="tight-bounds" transform="matrix(1,0,0,1,122.24000000000001,76.4)"><svg viewBox="0 0 395.52 247.2" height="247.2" width="395.52"><g><svg></svg></g><g><svg viewBox="0 0 395.52 247.2" height="247.2" width="395.52"><g><path d="M137.109 76.34l-1.575-40.014c-10.712-4.201-21.95-6.301-33.712-6.301-23.735 0-42.891 8.717-57.469 26.15-7.647 9.119-13.294 20.45-16.94 33.995l-21.679 0c4.464-18.391 12.086-33.777 22.866-46.156 18.358-21.089 42.24-31.633 71.646-31.633 16.384 0 30.457 3.256 42.22 9.767 4.411 2.311 7.877 4.831 10.397 7.562v45.685zM45.425 203.312c10.502 9.452 25.1 14.178 43.794 14.178 11.973 0 24.008-1.365 36.107-4.096 12.057-2.731 20.29-5.356 24.701-7.876l4.411 15.438c-9.242 6.091-25.415 10.292-48.52 12.603-6.721 0.84-13.8 1.26-21.236 1.26-7.478 0-16.258-1.218-26.34-3.655-10.082-2.395-19.429-7.268-28.041-14.619-15.344-13.034-24.662-32.872-27.953-59.515l21.649 0c2.961 20.926 10.103 36.354 21.428 46.282zM209.575 233.559h-19.849v-76.528l19.849 0zM189.726 13.011h21.424l38.73 77.159-19.865-0.001-20.44-40.61v40.61l-19.849 0zM292.123 174.326l8.681-17.295 19.775 0-17.744 35.254h-21.424l-17.744-35.254 19.774 0zM373.095 13.011h21.425v77.159h-19.849v-40.611l-20.44 40.61-19.866 0zM394.52 233.559h-19.849v-76.528l19.849 0z" fill="#77d4fc" data-fill-palette-color="tertiary"></path></g><g transform="matrix(1,0,0,1,2.842170943040401e-14,97.7219576027218)"><svg viewBox="0 0 395.5199999999999 51.756084794556386" height="51.756084794556386" width="395.5199999999999"><g><svg viewBox="0 0 395.5199999999999 51.756084794556386" height="51.756084794556386" width="395.5199999999999"><g><svg viewBox="0 0 395.5199999999999 51.756084794556386" height="51.756084794556386" width="395.5199999999999"><g><svg viewBox="0 0 395.5199999999999 51.756084794556386" height="51.756084794556386" width="395.5199999999999"><g><svg viewBox="0 0 395.5199999999999 51.756084794556386" height="51.756084794556386" width="395.5199999999999"><g><svg viewBox="0 0 395.5199999999999 51.756084794556386" height="51.756084794556386" width="395.5199999999999"><g transform="matrix(1,0,0,1,0,0)"><svg width="395.5199999999999" viewBox="3.25 -37.5 382.07000732421875 50" height="51.756084794556386" data-palette-color="#77d4fc"><path d="M24.85-24.95L24.6-31.3Q22.05-32.3 19.25-32.3L19.25-32.3Q13.6-32.3 10.13-28.15 6.65-24 6.65-16 6.65-8 10.3-4.8L10.3-4.8Q12.8-2.55 17.25-2.55L17.25-2.55Q20.1-2.55 22.98-3.2 25.85-3.85 26.9-4.45L26.9-4.45 27.6-2Q25.4-0.55 19.9 0L19.9 0Q18.3 0.2 16.53 0.2 14.75 0.2 12.35-0.38 9.95-0.95 7.9-2.7L7.9-2.7Q3.25-6.65 3.25-15.85 3.25-25.05 7.63-30.08 12-35.1 19-35.1L19-35.1Q22.9-35.1 25.7-33.55L25.7-33.55Q26.75-33 27.35-32.35L27.35-32.35 27.35-25.1 24.85-24.95ZM32.7-19.9L31.8-22.3Q37.25-25 41.35-25.15L41.35-25.15Q44.6-25.15 46.37-24.33 48.15-23.5 49.25-22.03 50.35-20.55 50.35-17.9L50.35-17.9 50.35 0 47.1 0 47.1-1.9Q40.25 0.2 38.3 0.2L38.3 0.2Q38.2 0.2 38.15 0.2L38.15 0.2Q33.65 0.2 32-2.55L32-2.55Q31.4-3.55 31.32-4.5 31.25-5.45 31.25-6.1L31.25-6.1Q31.25-7.9 32.65-9.33 34.05-10.75 36-11.25L36-11.25Q39.3-12.1 47.1-12.75L47.1-12.75 47.1-16.8Q47.1-22.25 41.4-22.25L41.4-22.25Q37.4-22.25 32.7-19.9L32.7-19.9ZM34.3-5.7L34.3-5.7Q34.3-2.1 39.25-2.1L39.25-2.1Q43.2-2.1 47.1-3.8L47.1-3.8 47.1-10.95Q39.3-9.85 37.45-9.25L37.45-9.25Q34.3-8.25 34.3-5.7ZM64.64-22.25L64.64-22.25Q61.84-22.1 58.59-20.4L58.59-20.4 58.59 0 55.34 0 55.34-25 58.59-25.25 58.59-22.45Q61.95-25 65.09-25.15L65.09-25.15Q70.39-25.15 72.39-22.5L72.39-22.5Q76.19-25 79.75-25.15L79.75-25.15Q82.8-25.15 84.44-24.4 86.09-23.65 87.17-22.28 88.25-20.9 88.25-18.4L88.25-18.4 88.25 0 85 0 85-17.55Q85-19.4 84.14-20.4L84.14-20.4Q82.59-22.25 79.75-22.25L79.75-22.25Q76.75-22.25 73.34-20.45L73.34-20.45Q73.59-19.45 73.59-18.4L73.59-18.4 73.59 0 70.34 0 70.34-17.55Q70.34-19.4 69.55-20.4L69.55-20.4Q67.94-22.25 64.64-22.25ZM97.24-12.3L97.24-11.5Q97.24-2.7 105.64-2.7L105.64-2.7Q109.19-2.7 112.14-3.65L112.14-3.65Q112.89-3.9 113.19-4.05L113.19-4.05 113.94-1.4Q112.19-0.35 107.59 0.1L107.59 0.1Q106.29 0.2 104.84 0.2L104.84 0.2Q100.64 0.2 97.84-1.9L97.84-1.9Q93.99-4.75 93.99-11.4 93.99-18.05 97.47-21.63 100.94-25.2 105.89-25.2 110.84-25.2 113.34-22L113.34-22Q115.24-19.45 115.24-15.25L115.24-15.25Q115.24-14.25 115.14-13.15L115.14-13.15 97.29-13.15Q97.24-12.75 97.24-12.3L97.24-12.3ZM106.09-22.1L106.09-22.1Q102.99-22.1 100.79-20.23 98.59-18.35 97.74-15.4L97.74-15.4 112.29-15.4Q112.04-20.95 107.99-21.85L107.99-21.85Q107.09-22.1 106.09-22.1ZM133.89-24.5L132.59-21.5Q131.79-21.95 130.89-21.95 129.99-21.95 129.89-21.9L129.89-21.9Q127.99-21.9 126.07-20.53 124.14-19.15 122.79-17.45L122.79-17.45 122.79 0 119.54 0 119.54-25 122.79-25.25 122.79-19.65Q124.64-22 125.94-22.95L125.94-22.95Q128.34-24.75 130.54-24.85L130.54-24.85Q130.84-24.9 131.64-24.9 132.44-24.9 133.89-24.5L133.89-24.5ZM135.19-6.4L135.19-6.4Q134.29-8.8 134.29-12L134.29-12Q134.29-18.15 137.74-21.68 141.19-25.2 146.39-25.2L146.39-25.2Q154.54-25.2 157.09-18.6L157.09-18.6Q158.04-16.2 158.04-13L158.04-13Q158.04-6.85 154.59-3.33 151.14 0.2 145.94 0.2L145.94 0.2Q137.79 0.2 135.19-6.4ZM137.54-12.35Q137.54-7.75 139.91-5.23 142.29-2.7 146.04-2.7 149.79-2.7 152.29-5.38 154.79-8.05 154.79-12.65 154.79-17.25 152.44-19.78 150.09-22.3 146.31-22.3 142.54-22.3 140.04-19.63 137.54-16.95 137.54-12.35ZM165.34-25.25L165.34-22.25Q169.09-25 172.44-25.15L172.44-25.15Q175.49-25.15 177.14-24.4 178.79-23.65 179.86-22.28 180.94-20.9 180.94-18.4L180.94-18.4 180.94 0 177.69 0 177.69-17.55Q177.69-19.4 176.89-20.4L176.89-20.4Q175.29-22.25 171.99-22.25L171.99-22.25Q168.84-22.1 165.34-20.2L165.34-20.2 165.34 0 162.09 0 162.09-25 165.34-25.25ZM206.13 0L202.98 0 202.98-35 206.38-35 219.23-9.4 232.08-35 235.48-35 235.48 0 232.33 0 232.33-29.2 220.93-6.55 217.53-6.55 206.13-29.2 206.13 0ZM257.63-16.4L257.38-21.65Q255.33-22.3 253.18-22.3L253.18-22.3Q248.83-22.3 246.2-19.5 243.58-16.7 243.58-11.6L243.58-11.6Q243.58-2.7 251.83-2.7L251.83-2.7Q255.13-2.7 258.63-3.8L258.63-3.8Q259.33-4 259.48-4.1L259.48-4.1 260.28-1.4Q258.53-0.35 253.93 0.1L253.93 0.1Q252.63 0.2 251.18 0.2L251.18 0.2Q246.93 0.2 244.18-1.9L244.18-1.9Q240.33-4.8 240.33-11.45 240.33-18.1 243.9-21.68 247.48-25.25 253.13-25.25L253.13-25.25Q254.93-25.25 256.95-24.78 258.98-24.3 260.08-23.3L260.08-23.3 260.08-16.75 257.63-16.4ZM287.13-24.95L286.88-31.3Q284.33-32.3 281.53-32.3L281.53-32.3Q275.88-32.3 272.4-28.15 268.93-24 268.93-16 268.93-8 272.58-4.8L272.58-4.8Q275.08-2.55 279.53-2.55L279.53-2.55Q282.38-2.55 285.25-3.2 288.13-3.85 289.18-4.45L289.18-4.45 289.88-2Q287.68-0.55 282.18 0L282.18 0Q280.58 0.2 278.8 0.2 277.03 0.2 274.63-0.38 272.23-0.95 270.18-2.7L270.18-2.7Q265.53-6.65 265.53-15.85 265.53-25.05 269.9-30.08 274.28-35.1 281.28-35.1L281.28-35.1Q285.18-35.1 287.98-33.55L287.98-33.55Q289.03-33 289.63-32.35L289.63-32.35 289.63-25.1 287.13-24.95ZM301.27-3.2L301.27-3.2Q302.37-2.8 304.77-2.8 307.17-2.8 310.97-4.75L310.97-4.75 310.97-25 314.22-25.25 314.22 0 310.97 0 310.97-2.7Q307.27 0.15 303.42 0.15L303.42 0.15Q298.62 0.15 296.47-2.7L296.47-2.7Q295.37-4.1 295.37-6.6L295.37-6.6 295.37-25 298.62-25.25 298.62-7.45Q298.62-4.35 301.27-3.2ZM335.07-24.5L333.77-21.5Q332.97-21.95 332.07-21.95 331.17-21.95 331.07-21.9L331.07-21.9Q329.17-21.9 327.25-20.53 325.32-19.15 323.97-17.45L323.97-17.45 323.97 0 320.72 0 320.72-25 323.97-25.25 323.97-19.65Q325.82-22 327.12-22.95L327.12-22.95Q329.52-24.75 331.72-24.85L331.72-24.85Q332.02-24.9 332.82-24.9 333.62-24.9 335.07-24.5L335.07-24.5ZM348.27-25.25L348.27-25.25Q351.22-25.25 353.87-23.5L353.87-23.5 353.87-37.25 357.12-37.5 357.12-1.15 356.87-1.15Q355.32-0.5 351.69-0.15 348.07 0.2 346.67 0.2L346.67 0.2Q342.47 0.2 339.72-1.9L339.72-1.9Q335.87-4.8 335.87-11.45 335.87-18.1 339.44-21.68 343.02-25.25 348.27-25.25ZM353.87-3.2L353.87-21.35Q351.37-22.3 348.97-22.3L348.97-22.3Q344.37-22.3 341.74-19.5 339.12-16.7 339.12-11.55 339.12-6.4 341.97-4.3L341.97-4.3Q344.02-2.7 347.14-2.7 350.27-2.7 353.87-3.2L353.87-3.2ZM370.02 0L361.12-25 364.77-25.25 372.22-2.35 381.82-25 385.32-25 368.72 12.5 365.67 12.5 371.17 0 370.02 0Z" opacity="1" transform="matrix(1,0,0,1,0,0)" fill="#77d4fc" class="undefined-text-0" data-fill-palette-color="primary" id="text-0"></path></svg></g></svg></g></svg></g></svg></g><g></g></svg></g></svg></g></svg></g></svg></g></svg><rect width="395.52" height="247.2" fill="none" stroke="none" visibility="hidden"></rect></g><defs></defs></svg>